<svg width="256" height="256" viewBox="0 0 256 256" fill="none" xmlns="http://www.w3.org/2000/svg">
  <path d="M70.3801 256C136.339 256 136.339 255.024 147.519 251.713C162.137 247.393 106.251 208.871 70.3801 208.871C34.5092 208.871 5.41736 219.429 5.41736 232.435C5.41736 245.457 34.4931 256 70.3801 256Z" fill="black"/>
  <path d="M220.144 55.6466L223.181 58.8941L220.53 62.4616C134.507 178.284 84.9501 230.724 63.9384 223.701C51.1194 219.414 38.2843 206.519 25.4331 187.818C18.5532 177.75 12.3806 167.22 6.95952 156.303C5.78173 154 4.93284 151.545 4.43748 149.008L4.37322 148.72C4.25954 148.075 4.12021 147.435 3.95555 146.801C-1.9766 124.638 -1.22118 101.226 6.12748 79.4883C13.4761 57.7505 27.0924 38.6504 45.2759 24.573C63.4594 10.4956 85.4044 2.06471 108.37 0.333177C131.336 -1.39835 154.306 3.6462 174.41 14.8369L174.86 15.1088C189.045 24.9473 204.129 38.4653 220.144 55.6466ZM168.933 24.0355C150.667 13.9323 129.82 9.40439 108.989 11.0158C88.1577 12.6273 68.263 20.3068 51.7832 33.0978C35.3033 45.8888 22.9668 63.2258 16.3103 82.9492C9.65387 102.673 8.97175 123.91 14.3489 144.017C14.6056 144.972 14.82 145.939 14.9915 146.913C15.2967 148.48 15.6341 149.472 16.6782 151.664C21.8625 162.081 27.7612 172.13 34.3325 181.739C45.9146 198.665 57.4325 210.215 67.36 213.526C80.5968 217.958 130.443 165.406 209.205 59.678C194.908 44.6403 181.478 32.7541 168.933 24.0355Z" fill="black"/>
  <path d="M168.933 24.0356C150.667 13.9324 129.82 9.40446 108.989 11.0159C88.1577 12.6273 68.263 20.3069 51.7831 33.0979C35.3033 45.8889 22.9668 63.2259 16.3103 82.9493C9.65386 102.673 8.97174 123.91 14.3489 144.017C14.6061 144.978 14.8205 145.949 14.9915 146.929C15.2967 148.496 15.634 149.488 16.6782 151.68C21.8625 162.097 27.7612 172.146 34.3325 181.755C45.9146 198.681 57.4325 210.231 67.36 213.542C80.5967 217.974 130.443 165.422 209.205 59.6941C194.908 44.6564 181.478 32.7542 168.933 24.0356Z" fill="#EC1C79"/>
  <path d="M138.78 254.928C107.692 254.928 77.877 242.629 55.8942 220.737C33.9114 198.845 21.5616 169.154 21.5616 138.194C21.5616 107.234 33.9114 77.5423 55.8942 55.6505C77.877 33.7586 107.692 21.4598 138.78 21.4598C169.869 21.4598 199.684 33.7586 221.667 55.6505C243.649 77.5423 255.999 107.234 255.999 138.194C255.999 169.154 243.649 198.845 221.667 220.737C199.684 242.629 169.869 254.928 138.78 254.928ZM138.78 244.21C152.872 244.382 166.857 241.767 179.925 236.516C192.994 231.265 204.886 223.483 214.911 213.621C224.937 203.758 232.897 192.012 238.33 179.063C243.763 166.114 246.56 152.22 246.56 138.186C246.56 124.152 243.763 110.258 238.33 97.3087C232.897 84.3596 224.937 72.6134 214.911 62.7511C204.886 52.8888 192.994 45.1066 179.925 39.8557C166.857 34.6049 152.872 31.9898 138.78 32.1622C110.542 32.1622 83.4607 43.3334 63.4934 63.2182C43.526 83.103 32.3084 110.073 32.3084 138.194C32.3084 166.315 43.526 193.285 63.4934 213.17C83.4607 233.054 110.542 244.21 138.78 244.21Z" fill="black"/>
  <path d="M138.78 244.226C167.019 244.226 194.1 233.055 214.068 213.17C234.035 193.285 245.252 166.315 245.252 138.194C245.252 110.073 234.035 83.103 214.068 63.2182C194.1 43.3334 167.019 32.1622 138.78 32.1622C110.542 32.1622 83.4608 43.3334 63.4934 63.2182C43.526 83.103 32.3085 110.073 32.3085 138.194C32.3085 166.315 43.526 193.285 63.4934 213.17C83.4608 233.055 110.542 244.226 138.78 244.226Z" fill="white"/>
  <path fill-rule="evenodd" clip-rule="evenodd" d="M59.1353 159.919L45.0311 117.637H57.3843L64.7256 141.921L72.8539 117.509H82.926L91.0544 141.921L98.3956 117.637H110.508L96.4037 159.919H86.2513L77.7534 135.746L69.3198 159.903H59.1514L59.1353 159.919ZM115.134 159.599V117.637H149.029V127.524H126.7V133.891H146.941V143.057H126.7V149.712H149.351V159.615H115.134V159.599ZM165.607 159.599V127.828H152.965V117.637H189.928V127.828H177.286V159.615H165.607V159.599ZM195.053 159.599V117.637H206.731V133.347H221.735V117.637H233.413V159.615H221.735V143.665H206.731V159.615H195.053V159.599Z" fill="black"/>
  <path d="M7.02375 104.999C5.65422 104.254 4.62869 103.008 4.16319 101.524C3.69768 100.041 3.82854 98.4352 4.52819 97.0458C5.22785 95.6564 6.4417 94.5917 7.91402 94.0759C9.38635 93.5601 11.0022 93.6335 12.4212 94.2807L29.6097 102.839C30.9567 103.595 31.9603 104.838 32.4128 106.31C32.8653 107.782 32.732 109.372 32.0406 110.749C31.3492 112.126 30.1525 113.186 28.6983 113.709C27.2441 114.231 25.6436 114.177 24.2283 113.558L7.02375 104.999ZM5.04788 133.411C3.68169 132.695 2.64359 131.484 2.14783 130.028C1.65207 128.572 1.73648 126.982 2.38366 125.587C3.03084 124.191 4.19138 123.096 5.62575 122.528C7.06012 121.959 8.65885 121.961 10.092 122.532L27.2965 130.435C28.0552 130.738 28.7442 131.191 29.3215 131.767C29.8988 132.343 30.3523 133.03 30.6545 133.787C30.9566 134.543 31.1011 135.352 31.079 136.166C31.057 136.98 30.8689 137.78 30.5263 138.519C30.1837 139.258 29.6936 139.92 29.086 140.464C28.4783 141.009 27.7658 141.424 26.9918 141.686C26.2178 141.947 25.3985 142.049 24.5837 141.985C23.7689 141.921 22.9757 141.692 22.2524 141.314L5.04788 133.411Z" fill="black"/>
</svg>
